<?xml version="1.0" encoding="UTF-8"?>
<!DOCTYPE svg PUBLIC "-//W3C//DTD SVG 1.1//EN" "http://www.w3.org/Graphics/SVG/1.1/DTD/svg11.dtd">
<!-- Creator: CorelDRAW -->
<svg xmlns="http://www.w3.org/2000/svg" xml:space="preserve" width="512px" height="512px" version="1.1" style="shape-rendering:geometricPrecision; text-rendering:geometricPrecision; image-rendering:optimizeQuality; fill-rule:evenodd; clip-rule:evenodd"
viewBox="0 0 512 512"
 xmlns:xlink="http://www.w3.org/1999/xlink">
 <defs>
  <style type="text/css">
   <![CDATA[
    .str0 {stroke:#FBD36C;stroke-width:0.900003}
    .fil0 {fill:#00AB94}
    .fil1 {fill:#5FD3AE}
    .fil4 {fill:#FBB507}
    .fil5 {fill:#FBD36C}
    .fil2 {fill:#FBB507;fill-rule:nonzero}
    .fil3 {fill:#FBD36C;fill-rule:nonzero}
   ]]>
  </style>
 </defs>
 <g id="Layer_x0020_1">
  <metadata id="CorelCorpID_0Corel-Layer"/>
  <path class="fil0" d="M242 139c0,0 -1,0 -1,0l-122 -1c-4,0 -7,-2 -8,-6 -1,-3 -2,-10 -4,-19 -3,-16 -7,-37 -10,-55 -2,-10 -3,-17 -4,-23 -1,-10 -1,-13 2,-16 0,0 0,-1 1,-1 5,-4 12,-5 18,-3 8,2 15,11 20,26 2,-3 5,-6 6,-8 7,-10 13,-19 21,-19 3,-1 6,0 8,2 2,2 7,6 16,26 3,-3 6,-8 9,-11 7,-11 15,-23 26,-21 8,2 12,10 16,28 3,-3 6,-7 9,-9 7,-8 11,-12 15,-14 3,-1 5,0 7,2 2,1 3,4 3,6l-21 110c-1,4 -4,6 -7,6z"/>
  <path class="fil1" d="M149 412l-72 0c-49,0 -77,-32 -77,-89 0,-40 15,-91 40,-132 28,-44 62,-70 94,-70l87 0c18,0 36,6 54,19 15,12 30,28 43,48 26,39 42,87 43,129 0,4 -3,7 -7,7 0,0 -1,-1 -2,-3l-9 50 1 0c3,2 4,6 2,9 -7,12 -17,21 -30,26 -1,1 -2,1 -3,1 -3,0 -5,-2 -6,-4l-158 2c0,4 0,7 0,7z"/>
  <g id="_388028952">
   <g>
    <path class="fil2" d="M316 431c0,7 0,40 0,44 0,6 -9,12 -25,16 -15,4 -37,6 -60,6 -24,0 -45,-2 -60,-6 -16,-4 -26,-10 -26,-16 0,-4 0,-36 0,-44l171 0z"/>
    <path class="fil3" d="M316 431l0 11c-6,5 -17,9 -24,10 -19,5 -41,7 -61,7 -20,0 -42,-2 -62,-7 -6,-1 -17,-5 -24,-10l0 -11 171 0z"/>
    <path class="fil2" d="M316 398c0,7 0,29 0,33 0,6 -9,12 -25,16 -15,4 -37,6 -60,6 -24,0 -45,-2 -60,-6 -16,-4 -26,-10 -26,-16 0,-4 0,-25 0,-33l171 0z"/>
    <path class="fil3" d="M231 375c23,0 45,3 60,7 16,4 25,9 25,16 0,6 -9,12 -25,16 -15,4 -37,6 -60,6 -24,0 -45,-2 -60,-6 -16,-4 -26,-10 -26,-16 0,-7 10,-12 26,-16 15,-4 36,-7 60,-7z"/>
   </g>
   <path class="fil2 str0" d="M512 431c0,7 0,40 0,44 0,6 -10,12 -25,16 -16,4 -37,6 -61,6 -23,0 -44,-2 -60,-6 -15,-4 -25,-10 -25,-16 0,-4 0,-36 0,-44l171 0z"/>
   <path class="fil3" d="M512 431l0 11c-6,5 -17,9 -24,10 -19,5 -42,7 -62,7 -20,0 -42,-2 -61,-7 -7,-1 -18,-5 -24,-10l0 -11 171 0z"/>
   <path class="fil2" d="M512 387c0,7 0,40 0,44 0,6 -10,12 -25,16 -16,4 -37,6 -61,6 -23,0 -44,-2 -60,-6 -15,-4 -25,-10 -25,-16 0,-4 0,-36 0,-44l171 0z"/>
   <path class="fil3" d="M512 387l0 11c-6,5 -17,9 -24,10 -19,5 -42,7 -62,7 -20,0 -42,-2 -61,-7 -7,-1 -18,-5 -24,-10l0 -11 171 0z"/>
   <path class="fil2" d="M512 343c0,7 0,40 0,44 0,6 -10,12 -25,16 -16,4 -37,6 -61,6 -23,0 -44,-2 -60,-6 -15,-4 -25,-10 -25,-16 0,-4 0,-36 0,-44l171 0z"/>
   <path class="fil3" d="M512 343l0 10c-6,6 -17,9 -24,11 -19,5 -42,7 -62,7 -20,0 -42,-2 -61,-7 -7,-2 -18,-5 -24,-11l0 -10 171 0z"/>
   <path class="fil2" d="M512 310c0,6 0,29 0,33 0,6 -10,12 -25,16 -16,4 -37,6 -61,6 -23,0 -44,-2 -60,-6 -15,-4 -25,-10 -25,-16 0,-4 0,-25 0,-33l171 0z"/>
   <path class="fil3" d="M426 287c24,0 45,3 61,7 15,4 25,9 25,16 0,6 -10,12 -25,16 -16,3 -37,6 -61,6 -23,0 -44,-3 -60,-6 -15,-4 -25,-10 -25,-16 0,-7 10,-12 25,-16 16,-4 37,-7 60,-7z"/>
  </g>
  <g id="_388027968">
   <path class="fil4" d="M180 359c-50,0 -92,-42 -92,-92 0,-50 42,-93 92,-93 50,0 93,43 93,93 0,50 -43,92 -93,92z"/>
   <path class="fil5" d="M180 191c-40,0 -75,35 -75,76 0,41 35,75 75,75 41,0 76,-34 76,-75 0,-41 -35,-76 -76,-76z"/>
   <path class="fil4" d="M172 312c-10,-3 -19,-12 -19,-26 0,-5 4,-8 8,-8 5,0 9,3 9,8 0,10 9,11 10,11 2,0 11,-1 11,-11 0,-7 -2,-8 -13,-11 -9,-2 -25,-6 -25,-27 0,-13 8,-23 19,-27l0 -9c0,-5 4,-9 8,-9 5,0 9,4 9,9l0 9c11,4 19,14 19,27 0,4 -4,8 -8,8 -5,0 -9,-4 -9,-8 0,-6 -4,-11 -11,-11 -6,0 -10,5 -10,11 0,7 2,8 12,11 10,2 26,6 26,27 0,14 -9,23 -19,26l0 10c0,5 -4,8 -9,8 -4,0 -8,-3 -8,-8l0 -10z"/>
  </g>
 </g>
</svg>
